<?xml version="1.0" encoding="UTF-8" standalone="no"?>
<!DOCTYPE svg PUBLIC "-//W3C//DTD SVG 1.1//EN"
 "http://www.w3.org/Graphics/SVG/1.1/DTD/svg11.dtd">
<!-- Generated by graphviz version 2.43.0 (0)
 -->
<!-- Title: DD Pages: 1 -->
<svg width="191pt" height="224pt"
 viewBox="0.00 0.00 191.25 223.60" xmlns="http://www.w3.org/2000/svg" xmlns:xlink="http://www.w3.org/1999/xlink">
<g id="graph0" class="graph" transform="scale(1 1) rotate(0) translate(4 219.6)">
<title>DD</title>
<polygon fill="white" stroke="transparent" points="-4,4 -4,-219.6 187.25,-219.6 187.25,4 -4,4"/>
<!-- root -->
<!-- 885340 -->
<g id="node3" class="node">
<title>885340</title>
<g id="a_node3"><a xlink:title="q1">
<text text-anchor="start" x="81.63" y="-158.5" font-family="Times,serif" font-size="20.00">q</text>
<text text-anchor="start" x="94.63" y="-158.5" font-family="Times,serif" baseline-shift="sub" font-size="12.00">1</text>
<g id="a_node3_0"><a xlink:href="javascript:;" xlink:title="1">
<polyline fill="none" stroke="black" points="91.63,-139.5 91.63,-150.5 77.63,-150.5 "/>
<text text-anchor="start" x="79.63" y="-143.1" font-family="Times,serif" font-size="8.00" fill="white"> 0 </text>
</a>
</g>
<g id="a_node3_1"><a xlink:href="javascript:;" xlink:title="1">
<polyline fill="none" stroke="black" points="105.63,-150.5 91.63,-150.5 91.63,-139.5 "/>
<text text-anchor="start" x="93.63" y="-143.1" font-family="Times,serif" font-size="8.00" fill="white"> 0 </text>
</a>
</g>
<path fill="none" stroke="black" d="M86.63,-139C86.63,-139 96.63,-139 96.63,-139 101.63,-139 106.63,-144 106.63,-149 106.63,-149 106.63,-166 106.63,-166 106.63,-171 101.63,-176 96.63,-176 96.63,-176 86.63,-176 86.63,-176 81.63,-176 76.63,-171 76.63,-166 76.63,-166 76.63,-149 76.63,-149 76.63,-144 81.63,-139 86.63,-139"/>
</a>
</g>
</g>
<!-- root&#45;&gt;885340 -->
<g id="edge1" class="edge">
<title>root&#45;&gt;885340</title>
<g id="a_edge1"><a xlink:title="1">
<path fill="none" stroke="#bf3f3f" stroke-width="3" d="M91.63,-211.86C91.63,-207.63 91.63,-190.04 91.63,-176.2"/>
</a>
</g>
</g>
<!-- t -->
<g id="node2" class="node">
<title>t</title>
<g id="a_node2"><a xlink:title="1">
<polygon fill="none" stroke="black" points="106.13,-30 77.13,-30 77.13,0 106.13,0 106.13,-30"/>
<text text-anchor="start" x="85.13" y="-10" font-family="Times,serif" font-size="20.00">1</text>
</a>
</g>
</g>
<!-- 885320 -->
<g id="node4" class="node">
<title>885320</title>
<g id="a_node4"><a xlink:title="q0">
<text text-anchor="start" x="57.63" y="-85.5" font-family="Times,serif" font-size="20.00">q</text>
<text text-anchor="start" x="70.63" y="-85.5" font-family="Times,serif" baseline-shift="sub" font-size="12.00">0</text>
<g id="a_node4_2"><a xlink:href="javascript:;" xlink:title="0">
<polyline fill="none" stroke="black" points="67.63,-66.5 67.63,-77.5 53.63,-77.5 "/>
<text text-anchor="start" x="55.63" y="-70.1" font-family="Times,serif" font-size="8.00"> 0 </text>
</a>
</g>
<g id="a_node4_3"><a xlink:href="javascript:;" xlink:title="0">
<polyline fill="none" stroke="black" points="81.63,-77.5 67.63,-77.5 67.63,-66.5 "/>
<text text-anchor="start" x="69.63" y="-70.1" font-family="Times,serif" font-size="8.00"> 0 </text>
</a>
</g>
<path fill="none" stroke="black" d="M62.63,-66C62.63,-66 72.63,-66 72.63,-66 77.63,-66 82.63,-71 82.63,-76 82.63,-76 82.63,-93 82.63,-93 82.63,-98 77.63,-103 72.63,-103 72.63,-103 62.63,-103 62.63,-103 57.63,-103 52.63,-98 52.63,-93 52.63,-93 52.63,-76 52.63,-76 52.63,-71 57.63,-66 62.63,-66"/>
</a>
</g>
</g>
<!-- 885340&#45;&gt;885320 -->
<g id="edge2" class="edge">
<title>885340:s&#45;&gt;885320</title>
<g id="a_edge2"><a xlink:title="1">
<path fill="none" stroke="#bf3f3f" stroke-width="3" d="M85.69,-138.95C82.03,-128.11 77.34,-114.24 73.66,-103.34"/>
</a>
</g>
</g>
<!-- 885300 -->
<g id="node5" class="node">
<title>885300</title>
<g id="a_node5"><a xlink:title="q0">
<text text-anchor="start" x="105.63" y="-85.5" font-family="Times,serif" font-size="20.00">q</text>
<text text-anchor="start" x="118.63" y="-85.5" font-family="Times,serif" baseline-shift="sub" font-size="12.00">0</text>
<g id="a_node5_4"><a xlink:href="javascript:;" xlink:title="0">
<polyline fill="none" stroke="black" points="115.63,-66.5 115.63,-77.5 101.63,-77.5 "/>
<text text-anchor="start" x="103.63" y="-70.1" font-family="Times,serif" font-size="8.00"> 0 </text>
</a>
</g>
<g id="a_node5_5"><a xlink:href="javascript:;" xlink:title="0">
<polyline fill="none" stroke="black" points="129.63,-77.5 115.63,-77.5 115.63,-66.5 "/>
<text text-anchor="start" x="117.63" y="-70.1" font-family="Times,serif" font-size="8.00"> 0 </text>
</a>
</g>
<path fill="none" stroke="black" d="M110.63,-66C110.63,-66 120.63,-66 120.63,-66 125.63,-66 130.63,-71 130.63,-76 130.63,-76 130.63,-93 130.63,-93 130.63,-98 125.63,-103 120.63,-103 120.63,-103 110.63,-103 110.63,-103 105.63,-103 100.63,-98 100.63,-93 100.63,-93 100.63,-76 100.63,-76 100.63,-71 105.63,-66 110.63,-66"/>
</a>
</g>
</g>
<!-- 885340&#45;&gt;885300 -->
<g id="edge3" class="edge">
<title>885340:s&#45;&gt;885300</title>
<g id="a_edge3"><a xlink:title="1">
<path fill="none" stroke="#bf3f3f" stroke-width="3" d="M97.56,-138.95C101.22,-128.11 105.91,-114.24 109.6,-103.34"/>
</a>
</g>
</g>
<!-- 885280 -->
<g id="node6" class="node">
<title>885280</title>
<g id="a_node6"><a xlink:title="q0">
<text text-anchor="start" x="153.63" y="-85.5" font-family="Times,serif" font-size="20.00">q</text>
<text text-anchor="start" x="166.63" y="-85.5" font-family="Times,serif" baseline-shift="sub" font-size="12.00">0</text>
<g id="a_node6_6"><a xlink:href="javascript:;" xlink:title="0">
<polyline fill="none" stroke="black" points="163.63,-66.5 163.63,-77.5 149.63,-77.5 "/>
<text text-anchor="start" x="151.63" y="-70.1" font-family="Times,serif" font-size="8.00"> 0 </text>
</a>
</g>
<g id="a_node6_7"><a xlink:href="javascript:;" xlink:title="1">
<polyline fill="none" stroke="black" points="177.63,-77.5 163.63,-77.5 163.63,-66.5 "/>
<text text-anchor="start" x="165.63" y="-70.1" font-family="Times,serif" font-size="8.00" fill="white"> 0 </text>
</a>
</g>
<path fill="none" stroke="black" d="M158.63,-66C158.63,-66 168.63,-66 168.63,-66 173.63,-66 178.63,-71 178.63,-76 178.63,-76 178.63,-93 178.63,-93 178.63,-98 173.63,-103 168.63,-103 168.63,-103 158.63,-103 158.63,-103 153.63,-103 148.63,-98 148.63,-93 148.63,-93 148.63,-76 148.63,-76 148.63,-71 153.63,-66 158.63,-66"/>
</a>
</g>
</g>
<!-- 885340&#45;&gt;885280 -->
<g id="edge4" class="edge">
<title>885340:se&#45;&gt;885280</title>
<g id="a_edge4"><a xlink:title="1">
<path fill="none" stroke="#bf3f3f" stroke-width="3" d="M105.63,-139C119.77,-124.86 136.65,-109.45 148.54,-98.81"/>
</a>
</g>
</g>
<!-- 885260 -->
<g id="node7" class="node">
<title>885260</title>
<g id="a_node7"><a xlink:title="q0">
<text text-anchor="start" x="9.63" y="-85.5" font-family="Times,serif" font-size="20.00">q</text>
<text text-anchor="start" x="22.63" y="-85.5" font-family="Times,serif" baseline-shift="sub" font-size="12.00">0</text>
<g id="a_node7_8"><a xlink:href="javascript:;" xlink:title="1">
<polyline fill="none" stroke="black" points="19.63,-66.5 19.63,-77.5 5.63,-77.5 "/>
<text text-anchor="start" x="7.63" y="-70.1" font-family="Times,serif" font-size="8.00" fill="white"> 0 </text>
</a>
</g>
<g id="a_node7_9"><a xlink:href="javascript:;" xlink:title="0">
<polyline fill="none" stroke="black" points="33.63,-77.5 19.63,-77.5 19.63,-66.5 "/>
<text text-anchor="start" x="21.63" y="-70.1" font-family="Times,serif" font-size="8.00"> 0 </text>
</a>
</g>
<path fill="none" stroke="black" d="M14.63,-66C14.63,-66 24.63,-66 24.63,-66 29.63,-66 34.63,-71 34.63,-76 34.63,-76 34.63,-93 34.63,-93 34.63,-98 29.63,-103 24.63,-103 24.63,-103 14.63,-103 14.63,-103 9.63,-103 4.63,-98 4.63,-93 4.63,-93 4.63,-76 4.63,-76 4.63,-71 9.63,-66 14.63,-66"/>
</a>
</g>
</g>
<!-- 885340&#45;&gt;885260 -->
<g id="edge5" class="edge">
<title>885340:sw&#45;&gt;885260</title>
<g id="a_edge5"><a xlink:title="1">
<path fill="none" stroke="#bf3f3f" stroke-width="3" d="M77.63,-139C63.48,-124.86 46.61,-109.45 34.72,-98.81"/>
</a>
</g>
</g>
<!-- 885320&#45;&gt;t -->
<g id="edge6" class="edge">
<title>885320:s&#45;&gt;t</title>
<g id="a_edge6"><a xlink:title="1">
<path fill="none" stroke="#bf3f3f" stroke-width="3" d="M73.93,-65.77C77.88,-54.67 82.89,-40.57 86.57,-30.22"/>
</a>
</g>
</g>
<!-- 885300&#45;&gt;t -->
<g id="edge9" class="edge">
<title>885300:s&#45;&gt;t</title>
<g id="a_edge9"><a xlink:title="1">
<path fill="none" stroke="#bf3f3f" stroke-width="3" d="M109.32,-65.77C105.38,-54.67 100.36,-40.57 96.68,-30.22"/>
</a>
</g>
</g>
<!-- 885280&#45;&gt;t -->
<g id="edge7" class="edge">
<title>885280:se&#45;&gt;t</title>
<g id="a_edge7"><a xlink:title="1">
<path fill="none" stroke="#bf3f3f" stroke-width="3" d="M177.63,-66C201.93,-41.7 136.48,-24.96 106.13,-18.72"/>
</a>
</g>
</g>
<!-- 885260&#45;&gt;t -->
<g id="edge8" class="edge">
<title>885260:sw&#45;&gt;t</title>
<g id="a_edge8"><a xlink:title="1">
<path fill="none" stroke="#bf3f3f" stroke-width="3" d="M5.63,-66C-18.68,-41.7 46.77,-24.96 77.12,-18.72"/>
</a>
</g>
</g>
</g>
</svg>
